<?xml version="1.0" encoding="UTF-8" standalone="no"?>
<svg
   viewBox="0 0 24 24"
   version="1.1"
   id="svg2503"
   xmlns="http://www.w3.org/2000/svg"
   xmlns:svg="http://www.w3.org/2000/svg">
  <defs
     id="defs2507" />
  <g
     id="g9072"
     transform="translate(-2.9519534)">
    <g
       id="g16566"
       transform="matrix(1.4464279,0,0,1.4464279,-6.6749694,-5.580349)">
      <path
         d="m 12,8.7148932 v 8.7348618 h -1.164648 v -2.911621 c -1.929653,0 -3.4939449,-1.564297 -3.4939449,-3.493944 0,-1.9296528 1.5642919,-3.4939446 3.4939449,-3.4939446 h 5.823241 V 8.7148932 H 14.911621 V 17.449755 H 13.746972 V 8.7148932 Z m -1.164648,0 c -1.286436,0 -2.329297,1.042862 -2.329297,2.3292968 0,1.286412 1.042861,2.329296 2.329297,2.329296 z"
         id="path2501-2"
         style="stroke-width:0.582324" />
      <path
         id="path6975"
         d="M 21.609375,8.0097656 17.119141,12.5 21.607422,16.990234 22.5625,16.035156 19.001953,12.5 c -0.127915,-0.127023 -0.127915,0.127023 0,0 L 22.5625,8.9648438 Z" />
    </g>
  </g>
</svg>
