<?xml version="1.0" encoding="UTF-8" standalone="no"?>
<!-- Uploaded to: SVG Repo, www.svgrepo.com, Transformed by: SVG Repo Mixer Tools -->

<svg
   height="800"
   width="800"
   version="1.1"
   id="Layer_1"
   viewBox="0 0 504.8 504.8"
   xml:space="preserve"
   fill="#000000"
   stroke="#000000"
   stroke-width="0.005048"
   xmlns="http://www.w3.org/2000/svg"
   xmlns:svg="http://www.w3.org/2000/svg"><defs
   id="defs56" />





<g
   id="SVGRepo_iconCarrier"
   transform="matrix(0.94119208,-0.94119208,0.94119208,0.94119208,-159.51785,315.20523)"> <path
   style="fill:#aad2ff;fill-opacity:1"
   d="m 480,203.5 c -6.4,0 -12,-2.4 -16.8,-7.2 -116.8,-116 -305.6,-116 -422.4,0 -9.6,9.6 -24.8,9.6 -33.6,0 -9.6,-9.6 -9.6,-24.8 0,-33.6 135.2,-135.2 355.2,-135.2 490.4,0 9.6,9.6 9.6,24.8 0,33.6 -4.8,4.8 -11.2,7.2 -17.6,7.2 z"
   id="path32" /> <g
   id="g40"
   style="fill:#097eff;fill-opacity:1"> <path
   style="fill:#097eff;fill-opacity:1"
   d="m 396,288.3 c -6.4,0 -12,-2.4 -16.8,-7.2 -70.4,-70.4 -184,-70.4 -254.4,0 -9.6,9.6 -24.8,9.6 -33.6,0 -9.6,-9.6 -9.6,-24.8 0,-33.6 88.8,-88.8 232.8,-88.8 321.6,0 9.6,9.6 9.6,24.8 0,33.6 -4.8,4.8 -10.4,7.2 -16.8,7.2 z"
   id="path34" /> <path
   style="fill:#097eff;fill-opacity:1"
   d="m 309.6,369.1 c -6.4,0 -12,-2.4 -16.8,-7.2 -22.4,-22.4 -59.2,-22.4 -81.6,0 -9.6,9.6 -24.8,9.6 -33.6,0 -9.6,-9.6 -9.6,-24.8 0,-33.6 40.8,-40.8 108,-40.8 148.8,0 9.6,9.6 9.6,24.8 0,33.6 -4.8,4.8 -10.4,7.2 -16.8,7.2 z"
   id="path36" /> <circle
   style="fill:#097eff;fill-opacity:1"
   cx="252"
   cy="419.5"
   r="24"
   id="circle38" /> </g>   </g>

</svg>